<?xml version="1.0" standalone="no"?>
<!DOCTYPE svg PUBLIC "-//W3C//DTD SVG 20010904//EN"
 "http://www.w3.org/TR/2001/REC-SVG-20010904/DTD/svg10.dtd">
<svg version="1.0" xmlns="http://www.w3.org/2000/svg"
 width="736.000000pt" height="736.000000pt" viewBox="0 0 736.000000 736.000000"
 preserveAspectRatio="xMidYMid meet">
<metadata>
Created by potrace 1.14, written by Peter Selinger 2001-2017
</metadata>
<g transform="translate(0.000000,736.000000) scale(0.100000,-0.100000)"
fill="#000000" stroke="none">
<path d="M971 6931 c-773 -287 -938 -351 -954 -373 -18 -25 -19 -35 -8 -304
12 -305 146 -3911 186 -4999 30 -842 28 -802 54 -828 24 -25 -63 -19 1171 -72
887 -38 1843 -79 2215 -95 585 -26 2119 -91 2377 -102 205 -8 294 -8 311 -1
16 8 171 258 506 819 l483 807 -1 2271 c0 1249 -4 2457 -8 2683 -7 466 -3 447
-85 457 -24 3 -396 10 -828 16 -432 6 -1046 15 -1365 20 -1299 23 -3027 50
-3072 49 -37 -1 -262 -80 -982 -348z m2294 164 c512 -9 1591 -26 2398 -39 808
-13 1470 -26 1472 -27 2 -2 6 -1165 11 -2583 l7 -2579 -209 6 c-181 6 -606 22
-1829 67 -1012 37 -1687 62 -2210 80 -618 21 -726 27 -723 38 0 4 346 349 767
768 421 418 1195 1187 1720 1708 681 676 956 943 962 934 5 -7 9 -110 9 -229
0 -180 3 -219 15 -229 12 -10 18 -10 30 0 23 19 22 551 -1 574 -13 13 -48 16
-210 18 -388 5 -359 7 -359 -22 0 -22 5 -26 45 -32 25 -3 129 -7 233 -7 103
-1 187 -5 187 -9 0 -5 -201 -208 -448 -453 -246 -244 -1020 -1013 -1720 -1709
-700 -696 -1277 -1266 -1281 -1268 -4 -1 -11 120 -15 270 -3 150 -13 505 -21
788 -23 783 -63 2219 -85 3035 -11 402 -21 772 -23 823 l-4 92 176 0 c97 0
595 -7 1106 -15z m-1381 -137 c4 -73 22 -707 41 -1408 34 -1237 50 -1816 79
-2835 8 -269 13 -492 10 -494 -2 -2 -8 7 -13 20 -5 13 -213 488 -464 1054
-723 1638 -747 1692 -747 1702 0 4 38 28 85 51 73 36 85 45 85 67 0 18 -5 25
-20 25 -21 0 -215 -93 -223 -107 -3 -4 0 -143 5 -308 10 -314 14 -334 55 -318
14 6 15 33 10 222 -5 183 -4 212 8 191 34 -65 1225 -2772 1225 -2785 0 -15
-1615 -1405 -1632 -1405 -4 0 -8 24 -8 53 0 28 -5 167 -10 307 -9 214 -96
2572 -181 4868 -12 325 -20 595 -17 598 6 5 1685 631 1699 633 4 1 10 -59 13
-131z m1526 -5553 c700 -294 1280 -540 1289 -545 16 -10 -5 -10 -284 5 -105 5
-129 -1 -123 -31 5 -26 36 -30 285 -38 120 -4 243 -9 274 -12 l56 -6 71 94
c40 52 72 99 72 105 0 16 -26 34 -41 28 -8 -3 -38 -39 -68 -80 -46 -63 -57
-72 -75 -65 -18 7 -855 359 -2116 890 -212 89 -396 166 -409 171 -13 5 -21 12
-19 15 3 3 122 0 264 -6 143 -5 444 -17 669 -25 659 -24 1738 -63 2455 -90
366 -13 824 -30 1018 -37 194 -7 357 -15 363 -19 7 -4 -149 -275 -420 -729
l-432 -721 -62 5 c-34 3 -129 8 -212 11 -82 3 -249 10 -370 15 -121 6 -483 21
-805 35 -2844 121 -4303 185 -4307 188 -1 2 361 315 805 695 645 553 811 691
829 687 11 -3 594 -246 1293 -540z"/>
</g>
</svg>
